{
  "accessors": [
    {
      "bufferView": 2,
      "componentType": 5126,
      "count": 6688,
      "max": [
        433.7026062011719,
        403.806396484375,
        209.32400512695313
      ],
      "min": [
        -379.7207946777344,
        -409.10931396484375,
        -9.999999747378752e-05
      ],
      "type": "VEC3"
    },
    {
      "bufferView": 2,
      "byteOffset": 80256,
      "componentType": 5126,
      "count": 6688,
      "max": [
        1.0,
        1.0,
        0.9999788999557495
      ],
      "min": [
        -1.0,
        -1.0,
        -0.6701119542121887
      ],
      "type": "VEC3"
    },
    {
      "bufferView": 1,
      "componentType": 5126,
      "count": 6688,
      "max": [
        1.0,
        3.0060999393463135
      ],
      "min": [
        -0.027799999341368675,
        0.0
      ],
      "type": "VEC2"
    },
    {
      "bufferView": 0,
      "componentType": 5125,
      "count": 31860,
      "type": "SCALAR"
    },
    {
      "bufferView": 2,
      "byteOffset": 160512,
      "componentType": 5126,
      "count": 4824,
      "max": [
        363.71160888671875,
        334.3810119628906,
        191.75230407714844
      ],
      "min": [
        -310.22320556640625,
        -339.5538024902344,
        111.5780029296875
      ],
      "type": "VEC3"
    },
    {
      "bufferView": 2,
      "byteOffset": 218400,
      "componentType": 5126,
      "count": 4824,
      "max": [
        0.7335048913955688,
        0.7335048913955688,
        0.7096332907676697
      ],
      "min": [
        -0.7335048913955688,
        -0.7335048913955688,
        -0.7096332907676697
      ],
      "type": "VEC3"
    },
    {
      "bufferView": 1,
      "byteOffset": 53504,
      "componentType": 5126,
      "count": 4824,
      "max": [
        0.0,
        0.0
      ],
      "min": [
        0.0,
        0.0
      ],
      "type": "VEC2"
    },
    {
      "bufferView": 0,
      "byteOffset": 127440,
      "componentType": 5125,
      "count": 28908,
      "type": "SCALAR"
    },
    {
      "bufferView": 2,
      "byteOffset": 276288,
      "componentType": 5126,
      "count": 688,
      "max": [
        363.71160888671875,
        -310.0599060058594,
        191.75230407714844
      ],
      "min": [
        356.7619934082031,
        -314.8622131347656,
        111.5780029296875
      ],
      "type": "VEC3"
    },
    {
      "bufferView": 2,
      "byteOffset": 284544,
      "componentType": 5126,
      "count": 688,
      "max": [
        0.7238687872886658,
        0.7335048913955688,
        0.7096332907676697
      ],
      "min": [
        -0.7239187359809875,
        -0.7335048913955688,
        -0.7096332907676697
      ],
      "type": "VEC3"
    },
    {
      "bufferView": 1,
      "byteOffset": 92096,
      "componentType": 5126,
      "count": 688,
      "max": [
        0.0,
        0.0
      ],
      "min": [
        0.0,
        0.0
      ],
      "type": "VEC2"
    },
    {
      "bufferView": 0,
      "byteOffset": 243072,
      "componentType": 5125,
      "count": 4116,
      "type": "SCALAR"
    },
    {
      "bufferView": 2,
      "byteOffset": 292800,
      "componentType": 5126,
      "count": 9968,
      "max": [
        363.71160888671875,
        334.3810119628906,
        191.75230407714844
      ],
      "min": [
        -310.22320556640625,
        -339.5538024902344,
        111.5780029296875
      ],
      "type": "VEC3"
    },
    {
      "bufferView": 2,
      "byteOffset": 412416,
      "componentType": 5126,
      "count": 9968,
      "max": [
        0.7335048913955688,
        0.7335048913955688,
        0.7096332907676697
      ],
      "min": [
        -0.7335048913955688,
        -0.7335048913955688,
        -0.7096830010414124
      ],
      "type": "VEC3"
    },
    {
      "bufferView": 1,
      "byteOffset": 97600,
      "componentType": 5126,
      "count": 9968,
      "max": [
        0.7260000109672546,
        0.7287999987602234
      ],
      "min": [
        0.2759000062942505,
        0.28679999709129333
      ],
      "type": "VEC2"
    },
    {
      "bufferView": 0,
      "byteOffset": 259536,
      "componentType": 5125,
      "count": 28896,
      "type": "SCALAR"
    },
    {
      "bufferView": 2,
      "byteOffset": 532032,
      "componentType": 5126,
      "count": 1424,
      "max": [
        363.71160888671875,
        142.26600646972656,
        191.75230407714844
      ],
      "min": [
        356.7619934082031,
        133.82440185546875,
        111.5780029296875
      ],
      "type": "VEC3"
    },
    {
      "bufferView": 2,
      "byteOffset": 549120,
      "componentType": 5126,
      "count": 1424,
      "max": [
        0.7239187359809875,
        0.7335048913955688,
        0.7096332907676697
      ],
      "min": [
        -0.7238687872886658,
        -0.7335048913955688,
        -0.7096830010414124
      ],
      "type": "VEC3"
    },
    {
      "bufferView": 1,
      "byteOffset": 177344,
      "componentType": 5126,
      "count": 1424,
      "max": [
        0.7260000109672546,
        0.7287999987602234
      ],
      "min": [
        0.2759000062942505,
        0.28679999709129333
      ],
      "type": "VEC2"
    },
    {
      "bufferView": 0,
      "byteOffset": 375120,
      "componentType": 5125,
      "count": 4128,
      "type": "SCALAR"
    },
    {
      "bufferView": 2,
      "byteOffset": 566208,
      "componentType": 5126,
      "count": 17700,
      "max": [
        407.43548583984375,
        377.55828857421875,
        192.9739990234375
      ],
      "min": [
        -353.8714904785156,
        -383.31451416015625,
        111.11070251464844
      ],
      "type": "VEC3"
    },
    {
      "bufferView": 2,
      "byteOffset": 778608,
      "componentType": 5126,
      "count": 17700,
      "max": [
        0.9973172545433044,
        0.997368574142456,
        0.9997864365577698
      ],
      "min": [
        -0.9973317980766296,
        -0.9973540902137756,
        -0.9998186230659485
      ],
      "type": "VEC3"
    },
    {
      "bufferView": 1,
      "byteOffset": 188736,
      "componentType": 5126,
      "count": 17700,
      "max": [
        4.393400192260742,
        1.5722999572753906
      ],
      "min": [
        -3.4421000480651855,
        -3.1610000133514404
      ],
      "type": "VEC2"
    },
    {
      "bufferView": 0,
      "byteOffset": 391632,
      "componentType": 5125,
      "count": 69408,
      "type": "SCALAR"
    },
    {
      "bufferView": 2,
      "byteOffset": 991008,
      "componentType": 5126,
      "count": 1152,
      "max": [
        407.6669006347656,
        377.7897033691406,
        188.7449951171875
      ],
      "min": [
        -354.1029052734375,
        -383.5458984375,
        115.24700164794922
      ],
      "type": "VEC3"
    },
    {
      "bufferView": 2,
      "byteOffset": 1004832,
      "componentType": 5126,
      "count": 1152,
      "max": [
        0.985887885093689,
        0.9856740236282349,
        0.9856032729148865
      ],
      "min": [
        -0.9856774210929871,
        -0.9857980012893677,
        -0.9913650155067444
      ],
      "type": "VEC3"
    },
    {
      "bufferView": 1,
      "byteOffset": 330336,
      "componentType": 5126,
      "count": 1152,
      "max": [
        3.5885000228881836,
        0.008299999870359898
      ],
      "min": [
        -3.5885000228881836,
        -0.008299999870359898
      ],
      "type": "VEC2"
    },
    {
      "bufferView": 0,
      "byteOffset": 669264,
      "componentType": 5125,
      "count": 1728,
      "type": "SCALAR"
    },
    {
      "bufferView": 2,
      "byteOffset": 1018656,
      "componentType": 5126,
      "count": 30036,
      "max": [
        402.21270751953125,
        372.33551025390625,
        191.54580688476563
      ],
      "min": [
        -348.6487121582031,
        -378.0917053222656,
        111.79280090332031
      ],
      "type": "VEC3"
    },
    {
      "bufferView": 2,
      "byteOffset": 1379088,
      "componentType": 5126,
      "count": 30036,
      "max": [
        0.9987038373947144,
        0.998693585395813,
        0.9999939203262329
      ],
      "min": [
        -0.9987139701843262,
        -0.9987038373947144,
        -0.9999986886978149
      ],
      "type": "VEC3"
    },
    {
      "bufferView": 1,
      "byteOffset": 339552,
      "componentType": 5126,
      "count": 30036,
      "max": [
        2.770699977874756,
        1.0
      ],
      "min": [
        -1.7706999778747559,
        0.0
      ],
      "type": "VEC2"
    },
    {
      "bufferView": 0,
      "byteOffset": 676176,
      "componentType": 5125,
      "count": 136080,
      "type": "SCALAR"
    },
    {
      "bufferView": 2,
      "byteOffset": 1739520,
      "componentType": 5126,
      "count": 33552,
      "max": [
        407.9906921386719,
        378.1134948730469,
        191.0832977294922
      ],
      "min": [
        -354.42669677734375,
        -383.86968994140625,
        112.90869903564453
      ],
      "type": "VEC3"
    },
    {
      "bufferView": 2,
      "byteOffset": 2142144,
      "componentType": 5126,
      "count": 33552,
      "max": [
        1.0,
        1.0,
        0.9999589920043945
      ],
      "min": [
        -1.0,
        -1.0,
        -0.9999595880508423
      ],
      "type": "VEC3"
    },
    {
      "bufferView": 1,
      "byteOffset": 579840,
      "componentType": 5126,
      "count": 33552,
      "max": [
        4.188499927520752,
        2.693000078201294
      ],
      "min": [
        -4.188499927520752,
        -2.693000078201294
      ],
      "type": "VEC2"
    },
    {
      "bufferView": 0,
      "byteOffset": 1220496,
      "componentType": 5125,
      "count": 188640,
      "type": "SCALAR"
    },
    {
      "bufferView": 2,
      "byteOffset": 2544768,
      "componentType": 5126,
      "count": 100,
      "max": [
        -189.7926025390625,
        -399.1130065917969,
        88.98090362548828
      ],
      "min": [
        -297.8544006347656,
        -527.505126953125,
        0.5932999849319458
      ],
      "type": "VEC3"
    },
    {
      "bufferView": 2,
      "byteOffset": 2545968,
      "componentType": 5126,
      "count": 100,
      "max": [
        0.6437233090400696,
        0.5773835778236389,
        0.7278264164924622
      ],
      "min": [
        -0.6437233090400696,
        -0.7005868554115295,
        -0.5774169564247131
      ],
      "type": "VEC3"
    },
    {
      "bufferView": 1,
      "byteOffset": 848256,
      "componentType": 5126,
      "count": 100,
      "max": [
        73.18409729003906,
        39.245601654052734
      ],
      "min": [
        -55.20790100097656,
        -49.14189910888672
      ],
      "type": "VEC2"
    },
    {
      "bufferView": 0,
      "byteOffset": 1975056,
      "componentType": 5125,
      "count": 240,
      "type": "SCALAR"
    },
    {
      "bufferView": 2,
      "byteOffset": 2547168,
      "componentType": 5126,
      "count": 7929,
      "max": [
        357.25518798828125,
        327.7157897949219,
        207.17599487304688
      ],
      "min": [
        -303.7786865234375,
        -333.1816101074219,
        87.55609893798828
      ],
      "type": "VEC3"
    },
    {
      "bufferView": 2,
      "byteOffset": 2642316,
      "componentType": 5126,
      "count": 7929,
      "max": [
        0.9999988079071045,
        0.9999988079071045,
        0.9999998807907104
      ],
      "min": [
        -0.9999988079071045,
        -0.9999935626983643,
        -0.9999996423721313
      ],
      "type": "VEC3"
    },
    {
      "bufferView": 1,
      "byteOffset": 849056,
      "componentType": 5126,
      "count": 7929,
      "max": [
        0.9581000208854675,
        0.9388999938964844
      ],
      "min": [
        -0.04699999839067459,
        0.0010999999940395355
      ],
      "type": "VEC2"
    },
    {
      "bufferView": 0,
      "byteOffset": 1976016,
      "componentType": 5125,
      "count": 41472,
      "type": "SCALAR"
    },
    {
      "bufferView": 2,
      "byteOffset": 2737464,
      "componentType": 5126,
      "count": 2603,
      "max": [
        -265.34429931640625,
        -294.8876037597656,
        207.17599487304688
      ],
      "min": [
        -303.3594055175781,
        -333.1015930175781,
        87.55609893798828
      ],
      "type": "VEC3"
    },
    {
      "bufferView": 2,
      "byteOffset": 2768700,
      "componentType": 5126,
      "count": 2603,
      "max": [
        0.9999778270721436,
        0.9990077614784241,
        0.9999998807907104
      ],
      "min": [
        -0.9999935626983643,
        -0.9999988079071045,
        -0.9999996423721313
      ],
      "type": "VEC3"
    },
    {
      "bufferView": 1,
      "byteOffset": 912488,
      "componentType": 5126,
      "count": 2603,
      "max": [
        0.9581000208854675,
        0.9388999938964844
      ],
      "min": [
        0.14880000054836273,
        0.08829999715089798
      ],
      "type": "VEC2"
    },
    {
      "bufferView": 0,
      "byteOffset": 2141904,
      "componentType": 5125,
      "count": 13824,
      "type": "SCALAR"
    },
    {
      "bufferView": 2,
      "byteOffset": 2799936,
      "componentType": 5126,
      "count": 1008,
      "max": [
        363.0606994628906,
        -333.6709899902344,
        188.7633056640625
      ],
      "min": [
        357.6747131347656,
        -339.0570983886719,
        115.22869873046875
      ],
      "type": "VEC3"
    },
    {
      "bufferView": 2,
      "byteOffset": 2812032,
      "componentType": 5126,
      "count": 1008,
      "max": [
        1.0,
        1.0,
        0.9998392462730408
      ],
      "min": [
        -1.0,
        -1.0,
        -0.9998392462730408
      ],
      "type": "VEC3"
    },
    {
      "bufferView": 0,
      "byteOffset": 2197200,
      "componentType": 5125,
      "count": 6048,
      "type": "SCALAR"
    }
  ],
  "asset": {
    "extras": {
      "author": "nvere (https://sketchfab.com/nvere)",
      "license": "CC-BY-4.0 (http://creativecommons.org/licenses/by/4.0/)",
      "source": "https://sketchfab.com/3d-models/boxing-area-3d-model-2-23b9f0d9c16748f5b214f6e974445f5e",
      "title": "Boxing Area 3D Model 2"
    },
    "generator": "Sketchfab-13.3.0",
    "version": "2.0"
  },
  "bufferViews": [
    {
      "buffer": 0,
      "byteLength": 2221392,
      "name": "floatBufferViews",
      "target": 34963
    },
    {
      "buffer": 0,
      "byteLength": 933312,
      "byteOffset": 2221392,
      "byteStride": 8,
      "name": "floatBufferViews",
      "target": 34962
    },
    {
      "buffer": 0,
      "byteLength": 2824128,
      "byteOffset": 3154704,
      "byteStride": 12,
      "name": "floatBufferViews",
      "target": 34962
    }
  ],
  "buffers": [
    {
      "byteLength": 5978832,
      "uri": "scene.bin"
    }
  ],
  "images": [
    {
      "uri": "textures/wire_028089177_baseColor.png"
    },
    {
      "uri": "textures/wire_085028177_baseColor.png"
    }
  ],
  "materials": [
    {
      "doubleSided": true,
      "name": "wire_028089177",
      "pbrMetallicRoughness": {
        "baseColorTexture": {
          "index": 0
        },
        "metallicFactor": 0.0,
        "roughnessFactor": 0.6
      }
    },
    {
      "doubleSided": true,
      "name": "wire_057008136",
      "pbrMetallicRoughness": {
        "baseColorTexture": {
          "index": 0
        },
        "metallicFactor": 0.0,
        "roughnessFactor": 0.6
      }
    },
    {
      "doubleSided": true,
      "name": "wire_085028177",
      "pbrMetallicRoughness": {
        "baseColorTexture": {
          "index": 1
        },
        "metallicFactor": 0.0,
        "roughnessFactor": 0.6
      }
    },
    {
      "doubleSided": true,
      "name": "wire_088199225",
      "pbrMetallicRoughness": {
        "baseColorFactor": [
          0.04167169351225247,
          0.04167169351225247,
          0.04167169351225247,
          1.0
        ],
        "metallicFactor": 0.0,
        "roughnessFactor": 0.6
      }
    },
    {
      "doubleSided": true,
      "name": "wire_154215229",
      "pbrMetallicRoughness": {
        "baseColorTexture": {
          "index": 1
        },
        "metallicFactor": 0.0,
        "roughnessFactor": 0.6
      }
    },
    {
      "doubleSided": true,
      "name": "wire_229154215",
      "pbrMetallicRoughness": {
        "baseColorFactor": [
          0.898,
          0.6039,
          0.8431,
          1.0
        ],
        "metallicFactor": 0.0,
        "roughnessFactor": 0.6
      }
    }
  ],
  "meshes": [
    {
      "name": "Object_0",
      "primitives": [
        {
          "attributes": {
            "NORMAL": 1,
            "POSITION": 0,
            "TEXCOORD_0": 2
          },
          "indices": 3,
          "material": 0,
          "mode": 4
        }
      ]
    },
    {
      "name": "Object_1",
      "primitives": [
        {
          "attributes": {
            "NORMAL": 5,
            "POSITION": 4,
            "TEXCOORD_0": 6
          },
          "indices": 7,
          "material": 1,
          "mode": 4
        }
      ]
    },
    {
      "name": "Object_2",
      "primitives": [
        {
          "attributes": {
            "NORMAL": 9,
            "POSITION": 8,
            "TEXCOORD_0": 10
          },
          "indices": 11,
          "material": 1,
          "mode": 4
        }
      ]
    },
    {
      "name": "Object_3",
      "primitives": [
        {
          "attributes": {
            "NORMAL": 13,
            "POSITION": 12,
            "TEXCOORD_0": 14
          },
          "indices": 15,
          "material": 1,
          "mode": 4
        }
      ]
    },
    {
      "name": "Object_4",
      "primitives": [
        {
          "attributes": {
            "NORMAL": 17,
            "POSITION": 16,
            "TEXCOORD_0": 18
          },
          "indices": 19,
          "material": 1,
          "mode": 4
        }
      ]
    },
    {
      "name": "Object_5",
      "primitives": [
        {
          "attributes": {
            "NORMAL": 21,
            "POSITION": 20,
            "TEXCOORD_0": 22
          },
          "indices": 23,
          "material": 2,
          "mode": 4
        }
      ]
    },
    {
      "name": "Object_6",
      "primitives": [
        {
          "attributes": {
            "NORMAL": 25,
            "POSITION": 24,
            "TEXCOORD_0": 26
          },
          "indices": 27,
          "material": 2,
          "mode": 4
        }
      ]
    },
    {
      "name": "Object_7",
      "primitives": [
        {
          "attributes": {
            "NORMAL": 29,
            "POSITION": 28,
            "TEXCOORD_0": 30
          },
          "indices": 31,
          "material": 2,
          "mode": 4
        }
      ]
    },
    {
      "name": "Object_8",
      "primitives": [
        {
          "attributes": {
            "NORMAL": 33,
            "POSITION": 32,
            "TEXCOORD_0": 34
          },
          "indices": 35,
          "material": 2,
          "mode": 4
        }
      ]
    },
    {
      "name": "Object_9",
      "primitives": [
        {
          "attributes": {
            "NORMAL": 37,
            "POSITION": 36,
            "TEXCOORD_0": 38
          },
          "indices": 39,
          "material": 3,
          "mode": 4
        }
      ]
    },
    {
      "name": "Object_10",
      "primitives": [
        {
          "attributes": {
            "NORMAL": 41,
            "POSITION": 40,
            "TEXCOORD_0": 42
          },
          "indices": 43,
          "material": 4,
          "mode": 4
        }
      ]
    },
    {
      "name": "Object_11",
      "primitives": [
        {
          "attributes": {
            "NORMAL": 45,
            "POSITION": 44,
            "TEXCOORD_0": 46
          },
          "indices": 47,
          "material": 4,
          "mode": 4
        }
      ]
    },
    {
      "name": "Object_12",
      "primitives": [
        {
          "attributes": {
            "NORMAL": 49,
            "POSITION": 48
          },
          "indices": 50,
          "material": 5,
          "mode": 4
        }
      ]
    }
  ],
  "nodes": [
    {
      "children": [
        1
      ],
      "matrix": [
        1.0,
        0.0,
        0.0,
        0.0,
        0.0,
        2.220446049250313e-16,
        -1.0,
        0.0,
        0.0,
        1.0,
        2.220446049250313e-16,
        0.0,
        0.0,
        0.0,
        0.0,
        1.0
      ],
      "name": "Sketchfab_model"
    },
    {
      "children": [
        2,
        3,
        4,
        5,
        6,
        7,
        8,
        9,
        10,
        11,
        12,
        13,
        14
      ],
      "name": "obj.obj.cleaner.materialmerger.gles"
    },
    {
      "mesh": 0,
      "name": "Object_2"
    },
    {
      "mesh": 1,
      "name": "Object_3"
    },
    {
      "mesh": 2,
      "name": "Object_4"
    },
    {
      "mesh": 3,
      "name": "Object_5"
    },
    {
      "mesh": 4,
      "name": "Object_6"
    },
    {
      "mesh": 5,
      "name": "Object_7"
    },
    {
      "mesh": 6,
      "name": "Object_8"
    },
    {
      "mesh": 7,
      "name": "Object_9"
    },
    {
      "mesh": 8,
      "name": "Object_10"
    },
    {
      "mesh": 9,
      "name": "Object_11"
    },
    {
      "mesh": 10,
      "name": "Object_12"
    },
    {
      "mesh": 11,
      "name": "Object_13"
    },
    {
      "mesh": 12,
      "name": "Object_14"
    }
  ],
  "samplers": [
    {
      "magFilter": 9729,
      "minFilter": 9987,
      "wrapS": 10497,
      "wrapT": 10497
    }
  ],
  "scene": 0,
  "scenes": [
    {
      "name": "Sketchfab_Scene",
      "nodes": [
        0
      ]
    }
  ],
  "textures": [
    {
      "sampler": 0,
      "source": 0
    },
    {
      "sampler": 0,
      "source": 1
    }
  ]
}
